<?xml version="1.0" encoding="UTF-8"?>
<svg id="Calque_1" data-name="Calque 1" xmlns="http://www.w3.org/2000/svg" viewBox="0 0 1920 1027.15">
  <path d="M1920,109.14v918.01H0C0,688.15,0,349.14,0,10.13c2.62-1.26,5.92-1.9,7.72-3.9C13.84-.55,21.41-.72,29.32,.73c6.34,1.16,12.74,2.51,18.79,4.66,7.96,2.83,15,.19,22.3-2.09,5.71-1.79,11.55-3.75,17.35-.22,3.69,2.25,7.21,4.81,11.03,6.8,1.86,.97,4.34,1.58,6.37,1.26,8.71-1.37,17.31-3.39,26.03-4.68,8.1-1.2,16.34-1.65,24.05,2.02,6.3,3,12.57,6.12,18.59,9.65,8.41,4.94,17.39,9.24,21.89,18.94,.72,1.56,3.91,2.97,5.82,2.8,10.58-.93,21.32-1.54,30.4-8.22,3.74-2.76,7.62-5.36,11.57-7.81,3.8-2.34,7.55-5.49,11.72-6.34,9.05-1.85,18.02-.39,26.99,2.35,8.32,2.54,17.05,4.74,25.67,5.06,15.26,.57,30.57-.36,45.86-.79,2.98-.08,6.14-.24,8.86-1.29,8.31-3.22,15.87-.7,23.8,1.69,7.56,2.28,15.56,4.72,23.29,4.5,18.24-.53,35.83,2.33,53.17,7.22,8.91,2.51,17.56,6,26.25,9.24,5.71,2.13,11.57,4.12,16.84,7.11,5.02,2.85,10.1,6.26,13.82,10.57,6.04,6.98,12.04,5.82,19.34,2.73,15.03-6.35,30.58-10.97,47.06-6.69,12.04,3.12,24.02,6.64,35.73,10.82,16.44,5.88,32.49,5.29,48.8-.31,4.56-1.56,9.96-3,14.43-2.01,12.24,2.7,23.69,7.55,33.15,16.38,2.25,2.1,5.72,3.54,8.81,3.97,6.41,.89,12.94,1.11,19.43,1.24,40.15,.8,80.3,1.87,120.46,2.11,29.97,.18,59.95-.78,89.93-1.2,8.47-.12,17.23-1.51,25.35,.16,19.19,3.93,38.29,4.79,57.52,1.71,6.78-1.09,13.08-.6,19.71,.85,4.12,.9,8.76,.13,13.04-.62,5.69-1,11.2-3.14,16.9-4.03,14.62-2.28,29.24-3.84,41.92-13.01,3.42-2.47,9.53-3.27,13.75-2.22,17.89,4.47,35.96,4.64,54.11,3.86,11.97-.52,23.89-2.42,35.85-2.59,44.27-.64,88.55-.99,132.83-1.04,9.41-.01,18.81,1.65,28.22,2.55,3.8,.37,7.63,.59,11.4,1.2,5.85,.93,12.01,1.26,17.4,3.44,6.9,2.79,13.64,3.54,20.93,3.15,13.28-.72,26.58-1.16,39.87-1.24,11.45-.06,22.9,.77,34.35,.81,8.15,.02,16.3-.82,24.46-.91,6.88-.08,13.04,2.16,18.21,6.93,3.06,2.81,6.17,5.64,9.6,7.96,4.78,3.23,9.47,6.59,15.8,6.68,83.14,1.1,166.29,2.28,249.43,3.54,27.48,.42,54.96,1.16,82.44,1.76Z"/>
</svg>