<?xml version="1.0" encoding="UTF-8"?>
<svg id="Calque_1" data-name="Calque 1" xmlns="http://www.w3.org/2000/svg" viewBox="0 0 1920 1080">
  <path d="M1918.99,0c.33,.17,.94,.32,.96,.5,.08,1.33,.04,2.66,.04,4V1080H0C0,745,0,410,0,75c2.71-.78,5.7-1.06,8.09-2.42,9.28-5.26,19.57-5.42,29.61-5.52,57.65-.58,115.31-.82,172.96-1.05,8.15-.03,16.59-.61,24.41,1.18,20.31,4.65,40.35,1.59,60.54-.02,6.87-.55,14.02-.62,20.72,.71,7.25,1.44,14.06,4.99,21.18,7.25,14.68,4.66,29.37,7.44,45.06,4.21,7.95-1.64,16.58-.4,24.88,.09,18.98,1.12,36.72-5.65,55.13-8.09,12.83-1.7,25.78-2.63,38.71-3.43,8.75-.54,17.61,.29,26.33-.53,5.81-.55,11.35-.79,16.55,1.79,6.82,3.38,13.83,2.65,21.02,2.21,16.59-1.02,33.2-1.81,49.82-2.31,3.13-.09,6.79,.89,9.39,2.61,6.97,4.61,14.37,6.74,22.65,6.28,14.04-.78,27.86,1.02,41.67,3.45,16.02,2.82,32,6.73,48.46,5.33,13.42-1.14,26.78-3,40.2-3.98,18.23-1.32,36.5-2.4,54.77-3.01,10.72-.35,21.17-.81,31.25-5.21,5.42-2.37,11.4-4.07,17.26-4.65,14.89-1.46,29.86-2.05,44.79-3.12,13.44-.96,26.9-1.82,40.29-3.22,10.49-1.1,20.33,.61,30.32,3.82,6.51,2.09,13.63,2.59,20.53,3.04,9.93,.66,19.93,.23,29.84,1,14.08,1.09,28.08,3.47,42.23,.54,16.02-3.32,32.13-.85,48.12,.14,9.86,.61,19.55,4.57,29.38,4.93,11.03,.4,20.1,3.22,27.43,11.57,4.61,5.25,10.5,7.01,17.53,6.17,13.21-1.58,26.47-3.75,39.7-3.72,12.88,.03,25.77,2.34,38.61,4,3.25,.42,6.13,2.16,7.05,6.17,.39,1.71,2.07,3.84,3.67,4.45,6.13,2.35,12.33,4.88,18.74,6.04,17.96,3.27,36.1,5.57,54.05,8.89,10.09,1.86,19.83,5.67,29.94,7.32,8.14,1.33,16.61,.48,24.9,1.08,7.93,.57,16.07,.83,23.65,2.92,11.15,3.07,22.21,3.8,32.91,.09,10.08-3.5,19.96-2.86,30.05-1.7,10.16,1.17,19.64,6.09,30.34,4.7,17.64-2.28,35.36-3.95,53.04-5.88,30.47-3.32,59.14-13.92,88.43-21.95,13.69-3.75,27.28-5.26,41.22-1.35,19.85,5.57,39.96,8.18,60.69,6.11,8.98-.89,18.59-1.45,27.12,.81,10.56,2.79,21.02,5.74,31.79,7.8,13.53,2.58,26.86,6.19,40.36,9.02,9.24,1.93,18.6,3.29,27.91,4.87,1.08,.18,2.2,.14,3.96,.24,0-2.48,0-4.6,0-6.72,0-40.83,0-81.66-.02-122.5,0-1.82-.18-3.65-.27-5.47Z"/>
</svg>