<?xml version="1.0" encoding="UTF-8"?>
<svg id="Calque_1" data-name="Calque 1" xmlns="http://www.w3.org/2000/svg" viewBox="0 0 1920 1001.02">
  <path d="M1920,0V1001.02H0C0,720.68,0,440.34,0,160c7.62,.69,15.31,2.32,22.85,1.79,6.62-.46,12.49,.78,18.43,2.97,21.55,7.93,43.09,15.91,64.65,23.85,1.23,.45,2.67,1.21,3.8,.94,12.76-3.03,25.64-5.71,38.12-9.65,5.22-1.65,10.13-3.3,15.47-2.28,11.82,2.25,21.66-.6,29.61-9.97,1.78-2.1,4.86-4.19,7.44-4.33,8.27-.43,16.65-.5,24.88,.36,5.98,.62,11.64,1.04,16.91-2.12,10.53-6.3,21.11-7.56,31.94-.83,.14,.09,.3,.19,.46,.2,2.19,.06,4.55,.65,6.55,.05,7.64-2.28,15.16-4.96,22.74-7.46,8.22-2.71,16.6-3.87,25.02-1.2,8.54,2.72,17.2,5.27,25.34,8.94,4.95,2.23,8.94,6.55,13.49,9.73,1.51,1.06,3.63,2.39,5.17,2.09,9.8-1.92,19.62-4,27.43-11.02,4.09-3.67,8.54-6.95,12.47-10.79,4.36-4.27,9.37-7.23,15.37-7.43,6.75-.22,13.52,.44,20.29,.74,5.94,.27,11.99,1.41,17.79,.67,10.86-1.38,21.58-3.81,32.35-5.86,8.12-1.54,16.4-2.55,24.26-4.97,5.24-1.61,10.08-2.48,15.55-1.83,9.03,1.07,18.47,3.2,27.16,1.66,16.48-2.92,32.8-2.89,49.21-1.4,7.56,.69,14.95,3.77,22.48,4.03,11.41,.39,22.19,3.09,30.98,9.68,9.29,6.96,16.76,5.67,25.89,.37,7.37-4.27,15.54-7.88,23.81-9.71,15.21-3.36,30.56-.69,45.53,2.57,18.81,4.09,36.23,1.31,52.87-8.05,2.38-1.34,5.34-2.56,7.96-2.43,10.48,.53,21.38,1.57,30,7.59,8.63,6.02,17.25,4.8,26.23,3.76,14.31-1.66,28.58-3.69,42.87-5.56,16.09-2.1,32.19-4.11,48.26-6.32,18.21-2.49,36.41-4.99,54.57-7.8,16.84-2.6,33.6-5.66,50.41-8.44,9.77-1.61,19.55-4.2,29.35-4.35,18.7-.28,36.99-1.94,54.96-7.44,5.06-1.55,10.77-.91,16.16-1.47,3.7-.38,7.54-.6,11.02-1.77,7.66-2.57,14.98-6.22,22.72-8.46,10.47-3.04,20.5-6.53,28.77-14.05,5.18-4.71,11.44-6.4,18.52-5.37,3.76,.55,7.71,.83,11.45,.31,15.6-2.15,31.18-4.52,46.73-7.07,20.15-3.3,40.27-6.86,60.4-10.27,29.12-4.94,58.17-10.35,87.39-14.58,13.75-1.99,27.83-1.79,41.77-2.39,2.77-.12,5.58,.93,8.38,1.02,6.57,.21,13.25,.93,19.69,.03,9.52-1.33,18.78-4.83,28.3-5.7,17.23-1.58,34.51-2.37,51.25-7.26,13.5-3.94,25.97-3,37.93,5.65,4.52,3.27,11.16,5.14,16.78,5.01,9.91-.23,19.77-2.51,29.66-3.88,38.08-5.26,76.16-10.52,114.25-15.75,35.96-4.94,71.93-9.85,107.9-14.78Z"/>
</svg>